<svg width="69" height="15" viewBox="0 0 69 15" fill="none" xmlns="http://www.w3.org/2000/svg">
<path d="M0.0302734 14.1412H13.9053V0.266172H0.0302734V14.1412ZM26.9525 6.23242H26.3218C26.2561 5.8908 26.1329 5.56068 25.9523 5.24205C25.7716 4.92014 25.5384 4.63108 25.2526 4.37487C24.9701 4.11537 24.6416 3.91007 24.2672 3.75897C23.8927 3.60787 23.4788 3.53231 23.0255 3.53231C22.362 3.53231 21.751 3.70969 21.1926 4.06445C20.6375 4.41593 20.1924 4.93328 19.8573 5.61652C19.5256 6.29976 19.3597 7.13574 19.3597 8.12447C19.3597 9.11976 19.5256 9.95903 19.8573 10.6423C20.1924 11.3255 20.6375 11.8429 21.1926 12.1943C21.751 12.5425 22.362 12.7166 23.0255 12.7166C23.4788 12.7166 23.8927 12.6427 24.2672 12.4949C24.6416 12.3438 24.9701 12.1401 25.2526 11.8839C25.5384 11.6244 25.7716 11.3337 25.9523 11.0118C26.1329 10.6899 26.2561 10.3581 26.3218 10.0165H26.9525C26.8802 10.4238 26.7406 10.8229 26.5337 11.2138C26.33 11.6047 26.0607 11.9595 25.7256 12.2781C25.3939 12.5934 25.0013 12.8447 24.548 13.032C24.098 13.2159 23.5905 13.3079 23.0255 13.3079C22.1846 13.3079 21.4439 13.0944 20.8034 12.6673C20.1628 12.237 19.6602 11.6326 19.2956 10.8541C18.9343 10.0756 18.7536 9.16575 18.7536 8.12447C18.7536 7.08319 18.9343 6.1733 19.2956 5.3948C19.6602 4.6163 20.1628 4.01354 20.8034 3.58651C21.4439 3.15621 22.1846 2.94105 23.0255 2.94105C23.5905 2.94105 24.098 3.03467 24.548 3.2219C25.0013 3.40585 25.3939 3.6555 25.7256 3.97084C26.0607 4.28289 26.33 4.63437 26.5337 5.02526C26.7406 5.41615 26.8802 5.81854 26.9525 6.23242ZM31.9216 13.3276C31.2975 13.3276 30.7423 13.1601 30.2562 12.825C29.77 12.4867 29.3874 12.0219 29.1082 11.4306C28.8289 10.8394 28.6893 10.166 28.6893 9.41047C28.6893 8.65168 28.8289 7.97829 29.1082 7.39031C29.3874 6.79905 29.77 6.33425 30.2562 5.99592C30.7423 5.65758 31.2975 5.48841 31.9216 5.48841C32.5457 5.48841 33.1008 5.65758 33.587 5.99592C34.0731 6.33425 34.4558 6.79905 34.735 7.39031C35.0142 7.98158 35.1538 8.65496 35.1538 9.41047C35.1538 10.166 35.0142 10.8394 34.735 11.4306C34.4558 12.0219 34.0731 12.4867 33.587 12.825C33.1008 13.1601 32.5457 13.3276 31.9216 13.3276ZM31.9216 12.7708C32.4504 12.7708 32.912 12.6214 33.3061 12.3224C33.7036 12.0235 34.0107 11.6195 34.2275 11.1104C34.4476 10.6012 34.5576 10.0346 34.5576 9.41047C34.5576 8.78635 34.4476 8.22137 34.2275 7.71551C34.0074 7.20637 33.7003 6.80233 33.3061 6.50342C32.912 6.20122 32.4504 6.05011 31.9216 6.05011C31.3927 6.05011 30.9312 6.20122 30.537 6.50342C30.1429 6.80233 29.8357 7.20637 29.6157 7.71551C29.3956 8.22137 29.2855 8.78635 29.2855 9.41047C29.2855 10.0346 29.3939 10.6012 29.6107 11.1104C29.8308 11.6195 30.1379 12.0235 30.5321 12.3224C30.9296 12.6214 31.3927 12.7708 31.9216 12.7708ZM40.0379 13.3276C39.4138 13.3276 38.8587 13.1601 38.3725 12.825C37.8864 12.4867 37.5037 12.0219 37.2245 11.4306C36.9453 10.8394 36.8057 10.166 36.8057 9.41047C36.8057 8.65168 36.9453 7.97829 37.2245 7.39031C37.5037 6.79905 37.8864 6.33425 38.3725 5.99592C38.8587 5.65758 39.4138 5.48841 40.0379 5.48841C40.662 5.48841 41.2172 5.65758 41.7033 5.99592C42.1895 6.33425 42.5721 6.79905 42.8514 7.39031C43.1306 7.98158 43.2702 8.65496 43.2702 9.41047C43.2702 10.166 43.1306 10.8394 42.8514 11.4306C42.5721 12.0219 42.1895 12.4867 41.7033 12.825C41.2172 13.1601 40.662 13.3276 40.0379 13.3276ZM40.0379 12.7708C40.5668 12.7708 41.0283 12.6214 41.4225 12.3224C41.8199 12.0235 42.1271 11.6195 42.3439 11.1104C42.5639 10.6012 42.674 10.0346 42.674 9.41047C42.674 8.78635 42.5639 8.22137 42.3439 7.71551C42.1238 7.20637 41.8166 6.80233 41.4225 6.50342C41.0283 6.20122 40.5668 6.05011 40.0379 6.05011C39.5091 6.05011 39.0476 6.20122 38.6534 6.50342C38.2592 6.80233 37.9521 7.20637 37.732 7.71551C37.5119 8.22137 37.4019 8.78635 37.4019 9.41047C37.4019 10.0346 37.5103 10.6012 37.7271 11.1104C37.9471 11.6195 38.2543 12.0235 38.6484 12.3224C39.0459 12.6214 39.5091 12.7708 40.0379 12.7708ZM45.8631 10.2136L45.8532 9.35134H46.0109L49.795 5.60174H50.5784L47.1048 9.05078L47.0456 9.07542L45.8631 10.2136ZM45.3408 13.1699V3.07901H45.9419V13.1699H45.3408ZM49.9675 13.1699L46.7746 9.13454L47.2082 8.73544L50.7361 13.1699H49.9675ZM52.3892 13.1699V5.60174H52.9854V13.1699H52.3892ZM52.6897 4.26154C52.5583 4.26154 52.4434 4.21555 52.3448 4.12358C52.2496 4.0316 52.2019 3.91992 52.2019 3.78853C52.2019 3.65714 52.2496 3.54545 52.3448 3.45348C52.4401 3.36151 52.5551 3.31552 52.6897 3.31552C52.8211 3.31552 52.9345 3.36151 53.0297 3.45348C53.1283 3.54545 53.1775 3.65714 53.1775 3.78853C53.1775 3.91992 53.1299 4.0316 53.0346 4.12358C52.9394 4.21555 52.8244 4.26154 52.6897 4.26154ZM58.4546 13.3276C57.7713 13.3276 57.1768 13.1584 56.6709 12.8201C56.1651 12.4818 55.7742 12.0186 55.4982 11.4306C55.2223 10.8426 55.0844 10.1725 55.0844 9.42032C55.0844 8.66482 55.2223 7.99143 55.4982 7.40017C55.7775 6.8089 56.1601 6.34246 56.6463 6.00084C57.1324 5.65922 57.6876 5.48841 58.3117 5.48841C58.7354 5.48841 59.1362 5.57382 59.5139 5.74463C59.895 5.91215 60.23 6.15523 60.5191 6.47385C60.8114 6.79248 61.0397 7.1768 61.2039 7.62682C61.3715 8.07684 61.4552 8.5827 61.4552 9.1444V9.51887H55.4638V8.97195H60.8541C60.8541 8.42338 60.7424 7.92902 60.5191 7.48886C60.2957 7.04869 59.9919 6.69886 59.6075 6.43936C59.2232 6.17986 58.7913 6.05011 58.3117 6.05011C57.8091 6.05011 57.3607 6.19136 56.9666 6.47385C56.5757 6.75306 56.2652 7.13081 56.0353 7.60711C55.8087 8.08341 55.6904 8.61554 55.6806 9.20352V9.44988C55.6806 10.0806 55.7906 10.6472 56.0107 11.1498C56.234 11.6491 56.5527 12.0449 56.9666 12.3372C57.3804 12.6263 57.8764 12.7708 58.4546 12.7708C58.8685 12.7708 59.2216 12.7018 59.5139 12.5639C59.8095 12.4226 60.051 12.2518 60.2382 12.0514C60.4254 11.8511 60.5667 11.6573 60.662 11.47L61.2089 11.6918C61.0939 11.9447 60.9149 12.1976 60.6718 12.4506C60.432 12.7002 60.1265 12.9088 59.7553 13.0763C59.3875 13.2438 58.9539 13.3276 58.4546 13.3276ZM68.3336 7.23264L67.7768 7.38046C67.6881 7.10454 67.5617 6.86639 67.3974 6.66602C67.2332 6.46564 67.0263 6.31126 66.7766 6.20286C66.5303 6.09118 66.2346 6.03533 65.8897 6.03533C65.3346 6.03533 64.8796 6.1733 64.5249 6.44922C64.1734 6.72514 63.9977 7.08483 63.9977 7.52828C63.9977 7.8896 64.1176 8.18852 64.3574 8.42503C64.5971 8.65825 64.9634 8.83563 65.4561 8.95716L66.6189 9.24787C67.2168 9.39569 67.6668 9.63548 67.969 9.96724C68.2712 10.2957 68.4223 10.7047 68.4223 11.1941C68.4223 11.6113 68.309 11.9808 68.0823 12.3027C67.8557 12.6246 67.542 12.8759 67.1412 13.0566C66.7438 13.2373 66.2806 13.3276 65.7518 13.3276C65.0455 13.3276 64.4658 13.1634 64.0125 12.8349C63.5591 12.5031 63.2684 12.0285 63.1403 11.4109L63.7168 11.2631C63.8252 11.7558 64.0502 12.1319 64.3918 12.3914C64.7367 12.6476 65.1884 12.7757 65.7468 12.7757C66.3644 12.7757 66.862 12.6296 67.2398 12.3372C67.6208 12.0449 67.8113 11.6704 67.8113 11.2138C67.8113 10.8656 67.6996 10.5716 67.4763 10.3319C67.2529 10.0921 66.9146 9.91633 66.4613 9.80464L65.2541 9.50901C64.6366 9.35791 64.1734 9.11648 63.8646 8.78471C63.5559 8.44966 63.4015 8.03742 63.4015 7.54798C63.4015 7.14067 63.5082 6.78263 63.7217 6.47385C63.9353 6.16508 64.2292 5.92365 64.6037 5.74956C64.9782 5.57546 65.4068 5.48841 65.8897 5.48841C66.5303 5.48841 67.0525 5.63951 67.4566 5.94172C67.8606 6.24392 68.1529 6.67423 68.3336 7.23264Z" fill="white"/>
</svg>
