<svg width="68" height="49" viewBox="0 0 68 49" fill="none" xmlns="http://www.w3.org/2000/svg">
<g clip-path="url(#clip0_238_1957)">
<path d="M66.52 8.24C65.74 5.31 64.03 2.83 61.1 2.05C55.79 0.63 34 0.5 34 0.5C34 0.5 12.21 0.63 6.9 2.05C3.97 2.83 2.27 5.31 1.48 8.24C0.0600001 13.55 0 24.5 0 24.5C0 24.5 0.0600001 35.45 1.48 40.76C2.26 43.69 3.97 46.17 6.9 46.95C12.21 48.37 34 48.5 34 48.5C34 48.5 55.79 48.37 61.1 46.95C64.03 46.17 65.74 43.69 66.52 40.76C67.94 35.45 68 24.5 68 24.5C68 24.5 67.94 13.55 66.52 8.24Z" fill="#FF0000"/>
<path d="M45 24.5L27 14.5V34.5" fill="white"/>
</g>
<defs>
<clipPath id="clip0_238_1957">
<rect width="68" height="48" fill="white" transform="translate(0 0.5)"/>
</clipPath>
</defs>
</svg>
